# xmcd
#
# Track frame offsets: 
#        150
#        17060
#        29877
#        45810
#        63790
#        76120
#        91980
#        105452
#        120465
#        135685
#
# Disc length: 2001 seconds
#
# Revision: 3
# Processed by: cddbd v1.5.2PL0 Copyright (c) Steve Scherf et al.
# Submitted via: ExactAudioCopy v1.1
#
DISCID=7007cf0a
DTITLE=Conway Twitty - House On Old Lonesome Road
DYEAR=1989
DGENRE=Country
TTITLE0=She's Got A Single Thing In Mind
TTITLE1=Who's Gonna Know
TTITLE2=Play Ruby Play
TTITLE3=House On Old Lonesome Road
TTITLE4=Nobody Can Fill Your Shoes
TTITLE5=Private Part Of My Heart
TTITLE6=Child With Child
TTITLE7=Take Me Home To Mama
TTITLE8=Pieces Of You
TTITLE9=Too White To Sing The Blues
EXTD=
EXTT0=
EXTT1=
EXTT2=
EXTT3=
EXTT4=
EXTT5=
EXTT6=
EXTT7=
EXTT8=
EXTT9=
PLAYORDER=
